<svg width="26" height="26" viewBox="0 0 26 26" fill="none" xmlns="http://www.w3.org/2000/svg">
<path fill-rule="evenodd" clip-rule="evenodd" d="M7.0253 18.9748C6.04263 17.9922 5.31746 16.7824 4.91403 15.4526C4.51059 14.1228 4.44135 12.714 4.71244 11.3511C4.98352 9.98815 5.58656 8.71309 6.46814 7.63888C7.34972 6.56466 8.48262 5.72445 9.76649 5.19266C11.0504 4.66088 12.4456 4.45394 13.8285 4.59018C15.2115 4.72642 16.5395 5.20163 17.6949 5.97372C18.8503 6.7458 19.7975 7.79093 20.4525 9.01652C21.1075 10.2421 21.4502 11.6103 21.4501 13C21.4501 13.431 21.2789 13.8443 20.9742 14.149C20.6694 14.4538 20.2561 14.625 19.8251 14.625C19.3941 14.625 18.9808 14.4538 18.6761 14.149C18.3713 13.8443 18.2001 13.431 18.2001 13C18.2 11.7423 17.744 10.5273 16.9168 9.58002C16.0895 8.63273 14.9469 8.01737 13.7007 7.84791C12.4545 7.67846 11.1891 7.9664 10.139 8.65839C9.08878 9.35038 8.32498 10.3995 7.98904 11.6115C7.6531 12.8235 7.76779 14.1161 8.31186 15.25C8.85593 16.3839 9.79252 17.2822 10.9481 17.7785C12.1037 18.2748 13.4001 18.3355 14.597 17.9492C15.7939 17.563 16.8102 16.7561 17.4578 15.678C17.9735 16.1337 18.6098 16.4309 19.2903 16.5338C19.9708 16.6368 20.6665 16.5412 21.294 16.2584C21.9214 15.9756 22.4539 15.5177 22.8275 14.9397C23.2011 14.3618 23.3999 13.6882 23.4001 13C23.4 10.5939 22.5657 8.26226 21.0392 6.40239C19.5127 4.54251 17.3886 3.26945 15.0287 2.80012C12.6688 2.3308 10.2192 2.69424 8.09728 3.82854C5.97533 4.96283 4.31233 6.79778 3.39163 9.02075C2.47093 11.2437 2.34949 13.7172 3.04801 16.0196C3.74653 18.3221 5.22179 20.3111 7.22242 21.6478C9.22304 22.9845 11.6253 23.5862 14.0198 23.3503C16.4143 23.1143 18.6529 22.0555 20.3542 20.3541C20.5264 20.1693 20.6202 19.9248 20.6157 19.6722C20.6113 19.4196 20.5089 19.1786 20.3303 19C20.1517 18.8213 19.9107 18.719 19.6581 18.7146C19.4055 18.7101 19.161 18.8039 18.9762 18.9761C18.1915 19.7609 17.26 20.3834 16.2347 20.8081C15.2094 21.2328 14.1105 21.4514 13.0008 21.4514C11.891 21.4514 10.7921 21.2328 9.76682 20.8081C8.74154 20.3834 7.80997 19.7609 7.0253 18.9761V18.9748ZM13.0001 9.74998C12.1381 9.74998 11.3115 10.0924 10.702 10.7019C10.0925 11.3114 9.7501 12.138 9.7501 13C9.7501 13.8619 10.0925 14.6886 10.702 15.2981C11.3115 15.9076 12.1381 16.25 13.0001 16.25C13.8621 16.25 14.6887 15.9076 15.2982 15.2981C15.9077 14.6886 16.2501 13.8619 16.2501 13C16.2501 12.138 15.9077 11.3114 15.2982 10.7019C14.6887 10.0924 13.8621 9.74998 13.0001 9.74998Z" fill="white"/>
</svg>
