<svg width="28" height="28" viewBox="0 0 28 28" fill="none" xmlns="http://www.w3.org/2000/svg"><rect width="28" height="28" rx="10" fill="#B2D1FF"/><path d="M13.558 7.2a.625.625 0 0 1 .884 0l7.241 7.242a.625.625 0 1 0 .884-.884l-7.241-7.241a1.875 1.875 0 0 0-2.652 0l-7.241 7.241a.625.625 0 0 0 .884.884L13.558 7.2Z" fill="#2079FF"/><path d="m14 8.527 6.8 6.799c.024.025.05.048.075.072v5.165c0 .862-.7 1.562-1.563 1.562H16.5a.625.625 0 0 1-.625-.625v-3.75a.625.625 0 0 0-.625-.625h-2.5a.625.625 0 0 0-.625.625v3.75a.625.625 0 0 1-.625.625H8.687a1.563 1.563 0 0 1-1.562-1.563v-5.165l.076-.071L14 8.525v.002Z" fill="#2079FF"/></svg>