<svg width="20" height="20" viewBox="0 0 20 20" fill="none" xmlns="http://www.w3.org/2000/svg"><path d="M3.75 3.125a2.5 2.5 0 0 0-2.5 2.5v.625h17.5v-.625a2.5 2.5 0 0 0-2.5-2.5H3.75Z" fill="#647288"/><path fill-rule="evenodd" clip-rule="evenodd" d="M18.75 8.125H1.25v6.25a2.5 2.5 0 0 0 2.5 2.5h12.5a2.5 2.5 0 0 0 2.5-2.5v-6.25Zm-15 3.125a.625.625 0 0 1 .625-.625h5a.625.625 0 1 1 0 1.25h-5a.625.625 0 0 1-.625-.625Zm.625 1.875a.625.625 0 1 0 0 1.25h2.5a.625.625 0 1 0 0-1.25h-2.5Z" fill="#647288"/></svg>